# xmcd
#
# Track frame offsets: 
#        150
#        11863
#        22440
#        33395
#        54858
#        65888
#        77175
#        87978
#        100595
#        112215
#        124300
#        134005
#        145583
#        154630
#        166503
#        183448
#        195703
#        205650
#        218398
#        230293
#        241840
#        251893
#        264388
#        276825
#
# Disc length: 3844 seconds
#
# Revision: 4
# Processed by: cddbd v1.5.2PL0 Copyright (c) Steve Scherf et al.
# Submitted via: ExactAudioCopy v1.0b1
#
DISCID=560f0218
DTITLE=Various Artist - Country U.S.A. Vol. 11 1963
DYEAR=1989
DGENRE=Country
TTITLE0=Johnny Cash - Ring Of Fire
TTITLE1=Buck Owens - Act Naturally
TTITLE2=George Jones - Not What I Had In Mind
TTITLE3=Ray Price - Night Life
TTITLE4=Patsy Cline - Leavin' On Your Mind
TTITLE5=Marty Robbins - Begging To You
TTITLE6=Dave Dudley - Six Days On The Road
TTITLE7=Bobby Bare - Detroit City
TTITLE8=Ernest Tubb - Thanks A Lot
TTITLE9=George Jones And Melba Montgomery - We Must Have Been Out Of O
TTITLE9=ur Minds
TTITLE10=Ned Miller - From A Jack To A King
TTITLE11=Ray Price - Make The World Go Away
TTITLE12=Buck Owens - Love's Gonna Live Here
TTITLE13=Hank Snow - Ninety Miles An Hour (Down A Dead End Street)
TTITLE14=Patsy Cline - Faded Love
TTITLE15=Bobby Bare - Five Hundred Miles Away From Home
TTITLE16=Wilburn Brothers - Roll Muddy River
TTITLE17=Bill Anderson - Still
TTITLE18=Ernest Ashworth - Talk Back Trembling Lips
TTITLE19=Loretta Lynn - Before I'm Over You
TTITLE20=George Hamilton IV - Abilene
TTITLE21=Johnny Cash - The Matador
TTITLE22=Hawkshaw Hawkins - Lonesome 7-7203
TTITLE23=Patsy Cline - Sweet Dreams (Of You)
EXTD=
EXTT0=
EXTT1=
EXTT2=
EXTT3=
EXTT4=
EXTT5=
EXTT6=
EXTT7=
EXTT8=
EXTT9=
EXTT10=
EXTT11=
EXTT12=
EXTT13=
EXTT14=
EXTT15=
EXTT16=
EXTT17=
EXTT18=
EXTT19=
EXTT20=
EXTT21=
EXTT22=
EXTT23=
PLAYORDER=
